{
    "asset" : {
        "generator" : "Khronos glTF Blender I/O v1.2.75",
        "version" : "2.0"
    },
    "scene" : 0,
    "scenes" : [
        {
            "name" : "Scene",
            "nodes" : [
                0
            ]
        }
    ],
    "nodes" : [
        {
            "mesh" : 0,
            "name" : "\u7403"
        }
    ],
    "meshes" : [
        {
            "name" : "\u7403.001",
            "primitives" : [
                {
                    "attributes" : {
                        "POSITION" : 0,
                        "NORMAL" : 1,
                        "TEXCOORD_0" : 2
                    },
                    "indices" : 3
                }
            ]
        }
    ],
    "accessors" : [
        {
            "bufferView" : 0,
            "componentType" : 5126,
            "count" : 343,
            "max" : [
                0.9999999403953552,
                5.493322372436523,
                0.9999998807907104
            ],
            "min" : [
                -0.9999998807907104,
                -1,
                -0.9999999403953552
            ],
            "type" : "VEC3"
        },
        {
            "bufferView" : 1,
            "componentType" : 5126,
            "count" : 343,
            "type" : "VEC3"
        },
        {
            "bufferView" : 2,
            "componentType" : 5126,
            "count" : 343,
            "type" : "VEC2"
        },
        {
            "bufferView" : 3,
            "componentType" : 5123,
            "count" : 1044,
            "type" : "SCALAR"
        }
    ],
    "bufferViews" : [
        {
            "buffer" : 0,
            "byteLength" : 4116,
            "byteOffset" : 0
        },
        {
            "buffer" : 0,
            "byteLength" : 4116,
            "byteOffset" : 4116
        },
        {
            "buffer" : 0,
            "byteLength" : 2744,
            "byteOffset" : 8232
        },
        {
            "buffer" : 0,
            "byteLength" : 2088,
            "byteOffset" : 10976
        }
    ],
    "buffers" : [
        {
            "byteLength" : 13064,
            "uri" : "exclamation.bin"
        }
    ]
}
